<svg width="18" height="20" viewBox="0 0 18 20" fill="none" xmlns="http://www.w3.org/2000/svg">
<path d="M14.3124 13.5625C13.6445 13.5625 13.0281 13.7969 12.5453 14.1883L7.689 10.675C7.77032 10.2287 7.77032 9.77133 7.689 9.325L12.5453 5.81172C13.0281 6.20312 13.6445 6.4375 14.3124 6.4375C15.864 6.4375 17.1249 5.17656 17.1249 3.625C17.1249 2.07344 15.864 0.8125 14.3124 0.8125C12.7609 0.8125 11.4999 2.07344 11.4999 3.625C11.4999 3.89687 11.5374 4.15703 11.6101 4.40547L6.99759 7.74531C6.31322 6.83828 5.22572 6.25 3.99994 6.25C1.92806 6.25 0.249939 7.92812 0.249939 10C0.249939 12.0719 1.92806 13.75 3.99994 13.75C5.22572 13.75 6.31322 13.1617 6.99759 12.2547L11.6101 15.5945C11.5374 15.843 11.4999 16.1055 11.4999 16.375C11.4999 17.9266 12.7609 19.1875 14.3124 19.1875C15.864 19.1875 17.1249 17.9266 17.1249 16.375C17.1249 14.8234 15.864 13.5625 14.3124 13.5625ZM14.3124 2.40625C14.9851 2.40625 15.5312 2.95234 15.5312 3.625C15.5312 4.29766 14.9851 4.84375 14.3124 4.84375C13.6398 4.84375 13.0937 4.29766 13.0937 3.625C13.0937 2.95234 13.6398 2.40625 14.3124 2.40625ZM3.99994 12.0625C2.86322 12.0625 1.93744 11.1367 1.93744 10C1.93744 8.86328 2.86322 7.9375 3.99994 7.9375C5.13666 7.9375 6.06244 8.86328 6.06244 10C6.06244 11.1367 5.13666 12.0625 3.99994 12.0625ZM14.3124 17.5938C13.6398 17.5938 13.0937 17.0477 13.0937 16.375C13.0937 15.7023 13.6398 15.1562 14.3124 15.1562C14.9851 15.1562 15.5312 15.7023 15.5312 16.375C15.5312 17.0477 14.9851 17.5938 14.3124 17.5938Z" fill="#8C8C8C"/>
</svg>
